<svg width="40" height="39" viewBox="0 0 40 39" fill="none" xmlns="http://www.w3.org/2000/svg">
<path d="M20.0007 0C8.95463 0 0 8.73077 0 19.5007C0 30.2707 8.95463 39.0014 20.0007 39.0014C31.0468 39.0014 40.0015 30.2707 40.0015 19.5007C40.0015 8.73077 31.0468 0 20.0007 0ZM21.8552 29.9507H13.0463V9.04934H20.4364C24.6076 9.04934 27.5247 11.011 27.5247 14.8785C27.5247 16.2992 26.7285 17.8117 25.4907 18.6741C29.3999 19.9212 29.3513 23.5389 29.3513 23.6379C29.3513 27.7048 26.5224 29.9507 21.8552 29.9507ZM29.3498 11.2234C28.6963 11.2234 28.2356 10.7743 28.2356 10.1371C28.2356 9.49995 28.6963 9.04791 29.3498 9.04791C30.0033 9.04791 30.4669 9.49995 30.4669 10.1371C30.4669 10.7743 30.0033 11.2234 29.3498 11.2234Z" fill="#FFF0D9"/>
</svg>
