<svg width="239" height="40" viewBox="0 0 239 40" fill="none" xmlns="http://www.w3.org/2000/svg">
<g clip-path="url(#clip0_2_6968)">
<path d="M151.256 30.7868C145.444 30.7868 142.328 26.4756 142.328 20.6911C142.328 14.3948 146.017 10.5953 151.272 10.5953C156.076 10.5953 157.983 12.6734 159.331 16.3643L154.418 18.2718C153.721 16.4574 153.054 15.3098 151.256 15.3098C148.993 15.3098 148.017 17.5739 148.017 20.6756C148.017 23.6686 148.962 26.0414 151.318 26.0414C153.023 26.0414 153.752 25.1109 154.806 23.2654L159.393 25.7002C158.091 28.29 155.906 30.7868 151.256 30.7868Z" fill="#2D2420"/>
<path d="M171.778 21.327C171.142 20.6291 170.414 20.1019 169.437 20.1019C168.213 20.1019 167.453 20.6912 167.453 22.4746V30.4768H162.416V15.7906H167.453V16.8607C168.321 16.0232 169.298 15.496 170.584 15.496C171.654 15.496 172.367 15.7441 172.956 16.1163L171.778 21.327Z" fill="#2D2420"/>
<path d="M183.743 30.4767V29.4997C182.844 30.1975 181.79 30.7868 180.085 30.7868C176.861 30.7868 175.327 28.6312 175.327 24.7697V15.7905H180.395V24.1339C180.395 26.0414 181.031 26.5376 182.069 26.5376C183.108 26.5376 183.743 26.0414 183.743 24.1804V15.7905H188.812V30.4767H183.743Z" fill="#2D2420"/>
<path d="M200.855 30.4765V22.1331C200.855 20.2256 200.219 19.7294 199.181 19.7294C198.111 19.7294 197.476 20.2256 197.476 22.0866V30.4765H192.439V15.7903H197.476V16.7673C198.406 16.0694 199.429 15.4801 201.165 15.4801C204.389 15.4801 205.923 17.6358 205.923 21.4973V30.4765H200.855Z" fill="#2D2420"/>
<path d="M215.735 30.7866C211.426 30.7866 208.853 28.0417 208.853 23.0946C208.853 18.5818 211.147 15.4801 215.843 15.4801C218.618 15.4801 220.199 16.7673 221.485 18.8299L218.013 21.4663C217.316 20.1791 216.835 19.5588 215.75 19.5588C214.464 19.5588 213.813 20.8459 213.813 23.1721C213.813 25.4984 214.51 26.6925 215.89 26.6925C216.835 26.6925 217.517 26.1652 218.432 24.785L221.625 27.2818C219.92 29.7941 218.339 30.7866 215.735 30.7866Z" fill="#2D2420"/>
<path d="M232.893 30.4766V22.1333C232.893 20.2258 232.257 19.7295 231.219 19.7295C230.149 19.7295 229.514 20.2258 229.514 22.0868V30.4766H224.476V12.084L229.514 10.068V16.7675C230.444 16.0696 231.467 15.4803 233.203 15.4803C236.427 15.4803 237.961 17.6359 237.961 21.4975V30.4766H232.893Z" fill="#2D2420"/>
<path d="M89.4746 15.6197V30.4764H84.0497V15.6197H78.5628V10.8897H94.9459V15.6197H89.4746Z" fill="#2D2420"/>
<path d="M107.625 24.5682H99.0068C99.1773 26.1965 100.123 26.9099 101.502 26.9099C102.789 26.9099 103.858 26.6308 105.3 25.8709L107.222 29.0965C105.408 30.1666 103.533 30.7714 101.239 30.7714C96.8214 30.7714 94.3879 27.6388 94.3879 23.1259C94.3879 18.0548 97.2399 15.4649 101.099 15.4649C105.129 15.4649 107.64 18.1168 107.64 23.5757C107.64 24.0099 107.64 24.3201 107.625 24.5682ZM100.96 19.2024C99.8128 19.2024 99.1773 19.9933 99.0068 21.4356H103.207C102.944 19.9468 102.448 19.2024 100.96 19.2024Z" fill="#2D2420"/>
<path d="M116.986 30.7866C112.678 30.7866 110.105 28.0416 110.105 23.0945C110.105 18.5817 112.399 15.4801 117.095 15.4801C119.869 15.4801 121.45 16.7673 122.737 18.8298L119.265 21.4662C118.567 20.179 118.087 19.5587 117.002 19.5587C115.715 19.5587 115.064 20.8459 115.064 23.1721C115.064 25.4983 115.762 26.6924 117.141 26.6924C118.087 26.6924 118.769 26.1651 119.683 24.7849L122.876 27.2817C121.171 29.794 119.59 30.7866 116.986 30.7866Z" fill="#2D2420"/>
<path d="M134.144 30.4766V22.1332C134.144 20.2257 133.509 19.7295 132.471 19.7295C131.401 19.7295 130.766 20.2257 130.766 22.0867V30.4766H125.728V12.084L130.766 10.0679V16.7674C131.696 16.0696 132.719 15.4803 134.454 15.4803C137.678 15.4803 139.213 17.6359 139.213 21.4974V30.4766H134.144Z" fill="#2D2420"/>
<path d="M0.0416565 2.5V13.6968H11.2324V36.075H22.4076V13.6968H33.5984V2.5H0.0416565Z" fill="#2D2420"/>
<path d="M44.7736 24.8783V13.6969L33.5984 13.6968L33.5983 36.0751H67.1396V24.8783H44.7736Z" fill="#2D2420"/>
<path d="M67.1396 2.5H44.7736L44.7736 13.6969L67.1396 13.6968V2.5Z" fill="#2D2420"/>
</g>
<defs>
<clipPath id="clip0_2_6968">
<rect width="238.333" height="40" fill="white" transform="translate(0.0416565)"/>
</clipPath>
</defs>
</svg>
