<svg width="115" height="40" viewBox="0 0 115 40" fill="none" xmlns="http://www.w3.org/2000/svg">
<path fill-rule="evenodd" clip-rule="evenodd" d="M70.0531 13.1382C68.2216 13.1382 66.7717 13.5185 65.3218 14.3552C65.3218 10.172 65.3218 6.29299 65.4744 5L56.5461 6.59722V7.3578L57.4618 7.50992C58.6828 7.7381 59.0643 8.42262 59.2933 10.0198C59.5222 13.2143 59.4459 30.0232 59.2933 32.8373C61.6589 33.3697 64.1772 33.75 66.6954 33.75C73.716 33.75 77.9131 29.4147 77.9131 22.5694C77.9894 17.0933 74.5554 13.1382 70.0531 13.1382ZM67.0006 32.2288C66.4665 32.2288 65.7797 32.2288 65.3981 32.0767C65.2455 30.2513 65.1692 22.4934 65.2455 15.6481C66.0086 15.42 66.5428 15.2679 67.2296 15.2679C70.1294 15.2679 71.7319 18.6905 71.7319 22.8737C71.7319 28.1978 69.7478 32.2288 67.0006 32.2288Z" fill="#FFF0D9"/>
<path fill-rule="evenodd" clip-rule="evenodd" d="M23.2747 5.53228H0V6.74921L1.29728 6.90132C3.05242 7.1295 3.66291 8.19431 3.96815 10.7042C4.3497 15.4198 4.19708 24.0144 3.96815 28.1216C3.73922 30.6315 3.05242 31.7724 1.29728 31.9245L0 32.1526V33.2175H14.9569V32.1526L13.3543 31.9245C11.5992 31.7724 10.9887 30.6315 10.6835 28.1216C10.5309 26.3722 10.4545 23.6341 10.4545 20.2115L13.6596 20.3636C15.6437 20.3636 16.5594 21.9608 16.9409 24.1665H18.1619V14.7353H16.9409C16.5594 16.941 15.6437 18.5382 13.6596 18.5382L10.4545 18.6903C10.4545 14.2029 10.6072 10.0197 10.6835 7.50979H15.3384C18.925 7.50979 20.7565 9.71548 22.0537 13.6705L23.351 13.2902L23.2747 5.53228Z" fill="#FFF0D9"/>
<path fill-rule="evenodd" clip-rule="evenodd" d="M30.7532 12.9101C37.3922 12.9101 40.6735 17.3975 40.6735 23.3301C40.6735 28.9584 37.0106 33.75 30.3716 33.75C23.7326 33.75 20.4512 29.2626 20.4512 23.3301C20.4512 17.6257 24.1904 12.9101 30.7532 12.9101ZM30.3716 14.2031C27.4718 14.2031 26.7087 18.1581 26.7087 23.254C26.7087 28.2739 28.006 32.3049 30.6768 32.3049C33.7293 32.3049 34.4924 28.3499 34.4924 23.254C34.4924 18.3102 33.1951 14.2031 30.3716 14.2031Z" fill="#FFF0D9"/>
<path fill-rule="evenodd" clip-rule="evenodd" d="M79.6682 23.4062C79.6682 18.0061 83.1022 12.8341 89.8175 12.8341C95.3882 12.8341 97.9827 16.9412 97.9827 22.3414H85.6967C85.5441 27.2091 87.9098 30.7838 92.7173 30.7838C94.854 30.7838 95.9223 30.2514 97.2196 29.3387L97.7538 30.0233C96.4565 31.8487 93.5567 33.6741 89.8175 33.6741C83.9416 33.7501 79.6682 29.4908 79.6682 23.4062ZM85.7731 20.9723L91.9542 20.8202C91.9542 18.1582 91.5727 14.2031 89.2833 14.2031C87.0703 14.2031 85.9257 17.93 85.7731 20.9723Z" fill="#FFF0D9"/>
<path fill-rule="evenodd" clip-rule="evenodd" d="M113.779 13.9749C112.176 13.2904 110.116 12.9101 107.674 12.9101C102.79 12.9101 99.7379 15.8003 99.7379 19.2229C99.7379 22.6456 101.951 24.0907 105.156 25.1555C108.437 26.3724 109.353 27.2851 109.353 28.8063C109.353 30.4035 108.132 31.8486 106.072 31.8486C103.553 31.8486 101.722 30.4035 100.272 26.4485L99.3563 26.6766L99.5089 32.4571C101.111 33.1416 104.011 33.674 106.53 33.674C111.719 33.674 115 31.012 115 26.9809C115 24.2428 113.55 22.6456 110.116 21.3526C106.453 19.9075 105.08 18.9948 105.08 17.2454C105.08 15.4961 106.301 14.3552 107.827 14.3552C110.192 14.3552 111.795 15.8003 113.016 19.3751L113.932 19.1469L113.779 13.9749Z" fill="#FFF0D9"/>
<path fill-rule="evenodd" clip-rule="evenodd" d="M57.8434 13.4426C55.6304 12.1496 51.6622 12.7581 49.5255 17.5497L49.6782 12.9102L40.8261 14.6595V15.4201L41.7419 15.5722C42.9628 15.7243 43.497 16.3328 43.5733 18.0821C43.8023 21.2766 43.7259 26.7528 43.5733 29.5669C43.4207 31.1642 42.8865 31.9247 41.7419 32.0769L40.8261 32.229V33.2938H53.1121V32.229L51.5096 32.0769C50.2123 31.9247 49.7545 31.1642 49.6782 29.5669C49.4492 27.057 49.4492 22.0372 49.5255 18.9188C50.2123 18.0061 53.1121 17.1694 55.7067 18.9188L57.8434 13.4426Z" fill="#FFF0D9"/>
</svg>
