<svg width="166" height="40" viewBox="0 0 166 40" fill="none" xmlns="http://www.w3.org/2000/svg">
<g clip-path="url(#clip0_2_6970)">
<path d="M27.1363 28.4021V10.3218C27.1363 9.38119 27.3447 8.67574 27.7875 8.20545C28.2043 7.73515 28.7773 7.5 29.4546 7.5C30.1578 7.5 30.7309 7.73515 31.1476 8.20545C31.5905 8.67574 31.7988 9.38119 31.7988 10.3218V28.4021C31.7988 29.3427 31.5905 30.0743 31.1476 30.5446C30.7048 31.0149 30.1578 31.25 29.4546 31.25C28.7773 31.25 28.2303 31.0149 27.8136 30.5446C27.3708 30.0481 27.1363 29.3427 27.1363 28.4021Z" fill="#2D2420"/>
<path d="M153.18 31.2239C146.668 31.2239 141.355 25.8938 141.355 19.3619C141.355 12.83 146.668 7.5 153.18 7.5C159.692 7.5 165.006 12.83 165.006 19.3619C165.006 25.92 159.718 31.2239 153.18 31.2239ZM153.18 12.3075C149.299 12.3075 146.148 15.4689 146.148 19.3619C146.148 23.2549 149.299 26.4164 153.18 26.4164C157.061 26.4164 160.213 23.2549 160.213 19.3619C160.213 15.495 157.061 12.3075 153.18 12.3075Z" fill="#2D2420"/>
<path d="M100.121 31.2239C93.6096 31.2239 88.2959 25.8938 88.2959 19.3619C88.2959 12.83 93.6096 7.5 100.121 7.5C106.633 7.5 111.947 12.83 111.947 19.3619C111.947 25.92 106.633 31.2239 100.121 31.2239ZM100.121 12.3075C96.2404 12.3075 93.0886 15.4689 93.0886 19.3619C93.0886 23.2549 96.2404 26.4164 100.121 26.4164C104.003 26.4164 107.154 23.2549 107.154 19.3619C107.154 15.495 104.003 12.3075 100.121 12.3075Z" fill="#2D2420"/>
<path d="M137.578 19.3619C137.578 16.7492 136.718 14.3193 135.286 12.3597C133.202 9.51183 129.868 7.63064 126.091 7.5C125.961 7.5 125.856 7.5 125.726 7.5H119.787C118.771 7.5 118.042 7.73515 117.599 8.20545C117.156 8.67574 116.922 9.40732 116.922 10.4524V28.2976C116.922 29.3427 117.156 30.0743 117.599 30.5446C118.042 31.0149 118.797 31.25 119.787 31.25H125.726C125.856 31.25 125.961 31.25 126.091 31.25C129.868 31.1455 133.176 29.2643 135.286 26.3903C136.718 24.4046 137.578 21.9747 137.578 19.3619ZM126.586 26.3641C126.013 26.3903 125.388 26.4164 124.736 26.4164H121.637V12.3075H124.736C125.388 12.3075 126.013 12.3075 126.586 12.3597C128.643 12.5949 130.415 13.7445 131.535 15.3644C132.316 16.4879 132.785 17.8727 132.785 19.3619C132.785 20.8512 132.316 22.2098 131.535 23.3333C130.415 25.0055 128.643 26.129 126.586 26.3641Z" fill="#2D2420"/>
<path d="M81.6016 7.60445C80.742 7.34317 79.8043 7.68283 79.3094 8.44053L72.1724 19.3357L65.0354 8.44053C64.5405 7.68283 63.6028 7.34317 62.7432 7.60445C61.8837 7.86572 61.2846 8.70181 61.2846 9.61627V28.9768C61.2846 30.1264 62.1962 31.0932 63.3423 31.0932C64.4624 31.0932 65.4001 30.1526 65.4001 28.9768V16.514L70.4533 24.2477C70.4533 24.2477 70.4533 24.2477 70.4533 24.2739C70.4533 24.2739 70.4533 24.3 70.4793 24.3C70.5054 24.3522 70.5314 24.4045 70.5835 24.4306C70.6096 24.4568 70.6096 24.4568 70.6356 24.4829C70.6617 24.509 70.6877 24.5613 70.7138 24.5874C70.7398 24.6135 70.7659 24.6396 70.7919 24.6658C70.8179 24.6919 70.844 24.6919 70.844 24.718C70.8961 24.7442 70.9221 24.7703 70.9742 24.8225L71.0003 24.8487C71.0524 24.8748 71.1045 24.9009 71.1305 24.927C71.1566 24.927 71.1566 24.9532 71.1566 24.9532C71.1826 24.9793 71.2347 24.9793 71.2608 25.0054C71.4691 25.1099 71.6775 25.1622 71.9119 25.1883C71.964 25.1883 71.9901 25.1883 72.0422 25.1883C72.0682 25.1883 72.0943 25.1883 72.1203 25.1883C72.1464 25.1883 72.1724 25.1883 72.1985 25.1883C72.2506 25.1883 72.2766 25.1883 72.3287 25.1883C72.5371 25.1622 72.7715 25.1099 72.9799 25.0054C73.0059 24.9793 73.058 24.9793 73.0841 24.9532L73.1101 24.927C73.1622 24.9009 73.2143 24.8748 73.2404 24.8487C73.2664 24.8487 73.2664 24.8225 73.2664 24.8225C73.3185 24.7964 73.3446 24.7703 73.3967 24.718C73.4227 24.6919 73.4488 24.6919 73.4488 24.6658C73.4748 24.6396 73.5008 24.6135 73.5269 24.5874C73.5529 24.5613 73.579 24.5351 73.605 24.4829C73.6311 24.4568 73.6311 24.4568 73.6571 24.4306C73.6832 24.3784 73.7353 24.3522 73.7613 24.3L73.7874 24.2739C73.7874 24.2739 73.7874 24.2739 73.7874 24.2477L78.8406 16.514V28.9768C78.8406 30.1264 79.7522 31.0932 80.8983 31.0932C82.0184 31.0932 82.9561 30.1526 82.9561 28.9768V9.61627C83.0603 8.70181 82.4612 7.86572 81.6016 7.60445Z" fill="#2D2420"/>
<path d="M54.3038 30.5184H38.9619C38.1544 30.5184 37.2688 30.022 36.9302 29.2382C36.5915 28.4543 36.5394 27.3831 37.2427 26.5209L49.7716 11.9156H39.4047C38.2846 11.9156 37.3469 10.9227 37.3469 9.72085C37.3469 8.51898 38.2586 7.76128 39.4047 7.76128H53.3661C54.1736 7.76128 55.0071 7.89191 55.7365 8.70187C56.4137 9.43344 56.3616 11.0272 55.6323 11.9678L43.5202 26.129H54.3038C55.4499 26.129 56.2574 27.1218 56.2574 28.3237C56.2574 29.5256 55.4499 30.5184 54.3038 30.5184Z" fill="#2D2420"/>
<path d="M11.8724 31.2239C8.46021 31.2239 5.3866 29.8652 3.17256 27.4092C1.24504 25.2668 0.125 22.4189 0.125 19.5971C0.125 10.7921 7.41831 7.5 12.0287 7.5C16.561 7.5 19.869 9.72085 20.0253 9.82536C21.0412 10.5308 21.3277 11.9156 20.6244 12.9607C19.9472 14.0058 18.5667 14.267 17.5508 13.5877C17.4987 13.5616 15.1284 12.0201 12.0287 12.0201C9.13745 12.0201 5.15217 13.9274 5.15217 19.5971C5.15217 22.8108 7.54855 26.6254 11.9245 26.6254C14.399 26.6254 16.1182 25.9722 17.134 25.319V21.9747H13.7479C12.5236 21.9747 11.5338 20.9557 11.5338 19.7277C11.5338 18.4736 12.5236 17.4807 13.7479 17.4807H19.4002C20.6244 17.4807 21.6142 18.4997 21.6142 19.7277V26.4425C21.6142 27.0434 21.3798 27.6444 20.937 28.0624C19.4523 29.5256 16.1703 31.2239 11.8724 31.2239Z" fill="#2D2420"/>
</g>
<defs>
<clipPath id="clip0_2_6970">
<rect width="165" height="40" fill="white" transform="translate(0.125)"/>
</clipPath>
</defs>
</svg>
