<svg width="1438" height="273" viewBox="0 0 1438 273" fill="none" xmlns="http://www.w3.org/2000/svg">
<path d="M1423.92 50.9395C1415.72 50.9395 1409.95 56.722 1409.95 64.8329C1409.95 72.9438 1415.72 78.7007 1423.92 78.7007C1432.11 78.7007 1437.9 72.9694 1437.9 64.8329C1437.9 56.6964 1432.08 50.9395 1423.92 50.9395ZM1423.92 75.0674C1418.04 75.0674 1413.9 70.8713 1413.9 64.9096C1413.9 58.948 1418.04 54.5727 1423.92 54.5727C1429.79 54.5727 1433.99 58.8457 1433.99 64.9096C1433.99 70.9736 1429.82 75.0674 1423.92 75.0674Z" fill="#FFF7EA"/>
<path d="M1429.3 62.6088C1429.3 59.8199 1427.24 58.0544 1424.33 58.0544H1418.66V71.8711H1422.4V67.0864H1423.27L1425.67 71.8711H1430L1426.93 66.498C1428.35 65.6536 1429.27 64.0672 1429.27 62.6088H1429.3ZM1424.25 63.709H1422.4V61.4319H1424.28C1425.05 61.4319 1425.46 61.918 1425.46 62.6088C1425.46 63.2229 1424.97 63.709 1424.25 63.709Z" fill="#FFF7EA"/>
<path d="M1332.85 23.0581L1277.96 51.6125L1278.11 104.346C1294.27 122.205 1304.08 145.822 1304.08 171.715C1304.08 197.609 1294.24 221.25 1278.06 239.135C1289.99 262.419 1315.98 271.553 1348.93 271.553C1355.88 271.553 1377.06 269.737 1384.01 266.845V220.381C1376.34 222.197 1363.54 223.656 1356.61 223.656C1339.06 223.656 1332.85 217.847 1332.85 198.248V122.743H1384.01V78.0945H1332.85V23.0581Z" fill="#FFF7EA"/>
<path d="M1072.96 94.7465C1059.07 80.2134 1039.34 70.7976 1013.76 70.7976C968.602 70.7976 933.928 98.9939 922.259 140.623C917.622 94.6953 894.386 70.7976 854.072 70.7976C833.232 70.7976 818.626 76.9639 807.652 88.5802L796.678 131.77V78.0386H710.819L675.734 204.359L639.927 79.4714H591.318L555.125 203.617L520.039 78.013H471.069V104.648C467.437 100.606 463.522 96.819 459.297 93.3904C441.806 79.2411 419.498 70.7464 395.206 70.7464C365.092 70.7464 338.018 83.7699 319.419 104.469V77.9362C312.103 75.0194 306.616 74.303 298.219 74.303C281.397 74.303 268.62 84.1026 263.133 90.2689L252.159 140.725V78.013H198.424V159.659C192.396 146.047 180.314 130.721 156.022 122.815C171.53 111.813 181.499 92.4949 181.499 74.3797C181.525 25.0491 144.971 0 92.704 0H0.0961304V266.815H110.478C154.915 266.815 186.059 250.235 198.424 219.48V266.815H252.159V177.8C252.159 145.843 267.152 125.169 291.985 125.169C296.725 125.169 300.717 125.476 304.556 126.09C297.549 139.804 293.582 155.284 293.582 171.71C293.582 227.438 339.074 272.623 395.18 272.623C448.091 272.623 491.523 232.453 496.314 181.152L523.672 266.815H584.698L615.404 158.994L647.192 266.815H708.218L735.395 179.079L742.891 127.574V266.815H796.627V167.719C796.627 137.962 810.511 120.154 835.37 120.154C860.228 120.154 869.348 133.229 869.348 166.261V266.815H923.083V206.431C935.603 245.783 969.915 272.265 1014.07 272.265C1032.72 272.265 1046.6 268.632 1059.02 260.649L1073.27 209.45L1072.9 266.815H1126.64V238.9C1110.59 221.067 1100.83 197.527 1100.83 171.71C1100.83 145.894 1110.59 122.354 1126.64 104.521V0H1072.9V94.7465H1072.96ZM56.3821 50.0982H93.0646C113.158 50.0982 125.239 60.6142 125.239 77.6804C125.239 95.8211 113.905 106.005 92.3433 106.005H56.3821V50.0982ZM111.947 216.717H56.3821V154.644H114.497C133.869 154.644 147.753 166.977 147.753 185.502C147.753 204.026 136.419 216.717 111.947 216.717ZM1024.71 223.984C997.298 223.984 973.908 204.384 973.908 172.427C973.908 140.469 997.298 119.054 1024.71 119.054C1050.29 119.054 1074.78 138.653 1074.78 172.427C1074.78 206.201 1050.29 223.984 1024.71 223.984Z" fill="#FFF7EA"/>
</svg>
