<svg width="164" height="32" viewBox="0 0 164 32" fill="none" xmlns="http://www.w3.org/2000/svg">
<path d="M162.405 6.0603C161.47 6.0603 160.812 6.73357 160.812 7.67793C160.812 8.62229 161.47 9.29258 162.405 9.29258C163.339 9.29258 164 8.62527 164 7.67793C164 6.73059 163.336 6.0603 162.405 6.0603ZM162.405 8.86955C161.735 8.86955 161.262 8.38099 161.262 7.68687C161.262 6.99275 161.735 6.48333 162.405 6.48333C163.074 6.48333 163.553 6.98083 163.553 7.68687C163.553 8.3929 163.077 8.86955 162.405 8.86955Z" fill="#FFF0D9"/>
<path d="M163.018 7.41894C163.018 7.09423 162.783 6.88867 162.451 6.88867H161.805V8.49736H162.231V7.94028H162.331L162.604 8.49736H163.098L162.748 7.87176C162.91 7.77345 163.015 7.58875 163.015 7.41894H163.018ZM162.443 7.54704H162.231V7.28191H162.445C162.534 7.28191 162.581 7.33851 162.581 7.41894C162.581 7.49044 162.525 7.54704 162.443 7.54704Z" fill="#FFF0D9"/>
<path d="M152.018 2.81323L145.756 6.13786L145.774 12.2777C147.616 14.3571 148.736 17.1067 148.736 20.1216C148.736 23.1364 147.613 25.889 145.768 27.9714C147.128 30.6823 150.093 31.7458 153.851 31.7458C154.645 31.7458 157.06 31.5343 157.853 31.1977V25.7877C156.978 25.9992 155.517 26.169 154.727 26.169C152.726 26.169 152.018 25.4928 152.018 23.2108V14.4196H157.853V9.22118H152.018V2.81323Z" fill="#FFF0D9"/>
<path d="M122.373 11.1606C120.789 9.46849 118.539 8.3722 115.621 8.3722C110.47 8.3722 106.515 11.6551 105.184 16.502C104.655 11.1546 102.005 8.3722 97.4066 8.3722C95.0296 8.3722 93.3636 9.09015 92.1118 10.4426L90.8602 15.4713V9.21527H81.0669L77.065 23.9229L72.9808 9.3821H67.4363L63.308 23.8365L59.3061 9.2123H53.7204V12.3135C53.3061 11.8428 52.8595 11.4019 52.3776 11.0027C50.3825 9.35529 47.838 8.36624 45.0672 8.36624C41.6324 8.36624 38.5442 9.88258 36.4228 12.2926V9.20336C35.5883 8.86375 34.9625 8.78033 34.0046 8.78033C32.0859 8.78033 30.6285 9.92131 30.0027 10.6393L28.751 16.514V9.2123H22.6217V18.7185C21.9342 17.1336 20.5561 15.3492 17.7854 14.4286C19.5542 13.1476 20.6913 10.8984 20.6913 8.78927C20.6942 3.04565 16.5248 0.12915 10.5631 0.12915H0V31.1948H12.5905C17.659 31.1948 21.2114 29.2643 22.6217 25.6835V31.1948H28.751V20.8306C28.751 17.1098 30.4611 14.7027 33.2935 14.7027C33.8342 14.7027 34.2896 14.7384 34.7274 14.8099C33.9282 16.4067 33.4757 18.209 33.4757 20.1216C33.4757 26.61 38.6647 31.871 45.0643 31.871C51.0995 31.871 56.0534 27.1939 56.5999 21.2209L59.7204 31.1948H66.6811L70.1835 18.641L73.8094 31.1948H80.7701L83.87 20.9796L84.725 14.9827V31.1948H90.8543V19.6569C90.8543 16.1922 92.438 14.1188 95.2734 14.1188C98.1089 14.1188 99.149 15.6411 99.149 19.4871V31.1948H105.278V24.1642C106.706 28.746 110.62 31.8293 115.656 31.8293C117.784 31.8293 119.367 31.4063 120.784 30.4768L122.408 24.5157L122.367 31.1948H128.496V27.9446C126.666 25.8682 125.552 23.1275 125.552 20.1216C125.552 17.1157 126.666 14.375 128.496 12.2986V0.12915H122.367V11.1606H122.373ZM6.42012 5.96214H10.6042C12.8961 5.96214 14.2741 7.18654 14.2741 9.17357C14.2741 11.2857 12.9813 12.4714 10.5219 12.4714H6.42012V5.96214ZM12.758 25.3618H6.42012V18.1346H13.0489C15.2584 18.1346 16.8422 19.5705 16.8422 21.7273C16.8422 23.8842 15.5493 25.3618 12.758 25.3618ZM116.87 26.2078C113.743 26.2078 111.075 23.9259 111.075 20.205C111.075 16.4842 113.743 13.9907 116.87 13.9907C119.787 13.9907 122.582 16.2727 122.582 20.205C122.582 24.1374 119.787 26.2078 116.87 26.2078Z" fill="#FFF0D9"/>
</svg>
